<?xml version="1.0" encoding="utf-8"?>
<!-- Generator: Adobe Illustrator 22.1.0, SVG Export Plug-In . SVG Version: 6.00 Build 0)  -->
<svg version="1.1" id="Слой_1" xmlns="http://www.w3.org/2000/svg" xmlns:xlink="http://www.w3.org/1999/xlink" x="0px" y="0px"
	 viewBox="0 0 39.4000015 50" enable-background="new 0 0 39.4000015 50" xml:space="preserve">
<path d="M19.9000015,0h-0.2000008L0,2.0999999v36.2000008L19.7000008,50l19.7000008-11.7000008V2.0999985
	C39.4000015,2.0999985,19.9000015-0.0000014,19.9000015,0z M36.9000015,36.7999992L19.7000008,47L2.5,36.7999992V22
	l17.1000004,10.2000008V34L7.9000015,27v1.7999992l11.7999992,7.0999985v1.9000015l-11.7999992-7v1.7999992l11.7999992,7
	L31.6000023,32.5v-7.6000004l5.2999992-3.2000008V36.7999992z M36.8000031,19.7999992l-4.7000008,2.7999992l-2.2000008,1.2999992
	l-10.2999992-6.1000004v1.7999992l8.7999992,5.3000011h-0.0999985l-0.2000008,0.1000004l-1.2999992,0.7000008l-7.2999992-4.3000011
	v1.7999992l5.7999992,3.3999996l-1.4000015,0.8999996l-4.2999992-2.6000004v1.7999992l2.9000015,1.6999989l-2.8999996,1.7000008
	l-17-10.1000004l17-10.1999998C19.6000042,9.7999945,36.8000069,19.7999954,36.8000031,19.7999992z M36.9000015,18
	L19.6000023,7.8000002L2.5000019,18V4.3999996l17.2000008-1.8000002l17.2000027,1.8000002
	C36.9000053,4.3999996,36.9000053,18,36.9000015,18z"/>
</svg>
