<?xml version="1.0" encoding="utf-8"?>
<!-- Generator: Adobe Illustrator 22.1.0, SVG Export Plug-In . SVG Version: 6.00 Build 0)  -->
<svg version="1.1" id="Layer_1" xmlns="http://www.w3.org/2000/svg" xmlns:xlink="http://www.w3.org/1999/xlink" x="0px" y="0px" viewBox="0 0 13.5179996 27.75" enable-background="new 0 0 13.5179996 27.75" xml:space="preserve">
<g>
  <path d="M9.5309982,27.7500019H2.7149963V14.8460016h-2.7150002V8.4720011h2.6290016
    c-0.2019997-2.8870001,0.2980003-5,1.519001-6.4439993c1.0390015-1.2290002,2.5830002-1.9110004,4.5880013-2.026
    l4.7820015-0.0009999v6.1500001H9.7630005C9.5970001,6.4660015,9.512001,7.2440014,9.5110016,8.472002h3.9780006v6.375h-3.958004
    V27.7500019z M4.2150002,26.2500019h3.8159981V13.3460016h3.9570007V9.9720011H8.0349998L8.019001,9.2380009
    c-0.0439987-2.04,0.0019989-3.7839999,1.007-4.46L9.2159996,4.651001h2.8009987V1.5010008H8.7779999
    C7.2210007,1.5920008,6.0670013,2.082001,5.2929993,2.9970009C4.2519989,4.2280006,3.8829994,6.295001,4.1940002,9.1410007
    l0.0919991,0.8320007H1.5v3.375h2.7150002V26.2500019z"/>
</g>
</svg>
