<svg>
  <symbol id="htmlacademy" xmlns="http://www.w3.org/2000/svg" xmlns:xlink="http://www.w3.org/1999/xlink" viewBox="0 0 39.4 50">
    <path d="M19.9000015,0h-0.2000008L0,2.0999999v36.2000008L19.7000008,50l19.7000008-11.7000008V2.0999985 C39.4000015,2.0999985,19.9000015-0.0000014,19.9000015,0z M36.9000015,36.7999992L19.7000008,47L2.5,36.7999992V22 l17.1000004,10.2000008V34L7.9000015,27v1.7999992l11.7999992,7.0999985v1.9000015l-11.7999992-7v1.7999992l11.7999992,7 L31.6000023,32.5v-7.6000004l5.2999992-3.2000008V36.7999992z M36.8000031,19.7999992l-4.7000008,2.7999992l-2.2000008,1.2999992 l-10.2999992-6.1000004v1.7999992l8.7999992,5.3000011h-0.0999985l-0.2000008,0.1000004l-1.2999992,0.7000008l-7.2999992-4.3000011 v1.7999992l5.7999992,3.3999996l-1.4000015,0.8999996l-4.2999992-2.6000004v1.7999992l2.9000015,1.6999989l-2.8999996,1.7000008 l-17-10.1000004l17-10.1999998C19.6000042,9.7999945,36.8000069,19.7999954,36.8000031,19.7999992z M36.9000015,18 L19.6000023,7.8000002L2.5000019,18V4.3999996l17.2000008-1.8000002l17.2000027,1.8000002 C36.9000053,4.3999996,36.9000053,18,36.9000015,18z" />
  </symbol>

  <symbol id="icon-fb" xmlns="http://www.w3.org/2000/svg" xmlns:xlink="http://www.w3.org/1999/xlink" viewBox="0 0 13.5 27.8">
    <path d="M9.5309982,27.7500019H2.7149963V14.8460016h-2.7150002V8.4720011h2.6290016 c-0.2019997-2.8870001,0.2980003-5,1.519001-6.4439993c1.0390015-1.2290002,2.5830002-1.9110004,4.5880013-2.026 l4.7820015-0.0009999v6.1500001H9.7630005C9.5970001,6.4660015,9.512001,7.2440014,9.5110016,8.472002h3.9780006v6.375h-3.958004 V27.7500019z M4.2150002,26.2500019h3.8159981V13.3460016h3.9570007V9.9720011H8.0349998L8.019001,9.2380009 c-0.0439987-2.04,0.0019989-3.7839999,1.007-4.46L9.2159996,4.651001h2.8009987V1.5010008H8.7779999 C7.2210007,1.5920008,6.0670013,2.082001,5.2929993,2.9970009C4.2519989,4.2280006,3.8829994,6.295001,4.1940002,9.1410007 l0.0919991,0.8320007H1.5v3.375h2.7150002V26.2500019z"/>
  </symbol>

  <symbol id="icon-insta" xmlns="http://www.w3.org/2000/svg" xmlns:xlink="http://www.w3.org/1999/xlink" viewBox="0 0 23 23">
    <g>
      <path d="M17.0019989,1.4989853c2.4800014,0,4.4980011,2.02,4.4980011,4.5009999v11 c0,2.480999-2.0179996,4.5-4.4980011,4.5H6.0100002c-2.4800003,0-4.4980001-2.019001-4.4980001-4.5v-11 c0-2.4809997,2.0179999-4.5,4.4980001-4.5h10.9919987 M17.0019989-0.0000146H6.0100002 c-3.3000002,0-5.9970002,2.6989999-5.9970002,6v11.0010014c0,3.2979984,2.697,5.9989986,5.9970002,5.9989986h10.9950008 C20.3010006,22.9999847,23,20.2989845,23,16.9989853V5.9999852C23,2.6989853,20.3010006-0.0000146,17.0019989-0.0000146 L17.0019989-0.0000146z"/>
      <path d="M11.5059996,7.0779853c2.4399996,0,4.4289999,1.9850001,4.4289999,4.4280009 c0,2.4400005-1.9890003,4.4300003-4.4289999,4.4300003c-2.4429998,0-4.428-1.9890003-4.428-4.4300003 C7.0780001,9.0629854,9.0629997,7.0779853,11.5059996,7.0779853 M11.5059996,5.5779853 c-3.2729998,0-5.928,2.6540008-5.928,5.9280009s2.6539998,5.9269991,5.928,5.9269991s5.9259996-2.6529989,5.9259996-5.9269991 S14.7799997,5.5779853,11.5059996,5.5779853L11.5059996,5.5779853z"/>
      <circle cx="17.6459999" cy="5.3789854" r="1.3409997"/>
    </g>
  </symbol>

  <symbol id="icon-mail" xmlns="http://www.w3.org/2000/svg" xmlns:xlink="http://www.w3.org/1999/xlink" viewBox="0 0 17 13">
    <path d="M15.6,11.6H1.4V5.8H0V13h17V5.8h-1.4V11.6z M0,0v2.3l8.5,7.1L17,2.3V0H0z M15.6,1.6L8.5,7.5L1.4,1.6V1.4h14.2L15.6,1.6z"/>
  </symbol>

  <symbol id="icon-phone" xmlns="http://www.w3.org/2000/svg" xmlns:xlink="http://www.w3.org/1999/xlink" viewBox="0 0 20 20">
    <g>
      <path d="M17.9,9.4H9.4v1.2h8.5l-2.1,2.1l0.9,0.9l3.1-3.1c0.2-0.2,0.2-0.6,0-0.9l-3.1-3.1l-0.9,0.9L17.9,9.4z"/>
      <path d="M8.1,19.4v-6.2c0-0.3-0.3-0.6-0.6-0.6H4.4l0,0H3.1l0,0c0,0.7,0.6,1.2,1.2,1.2h2.5v5H3.1c-1,0.1-1.8-0.7-1.9-1.7 c0-0.1,0-0.1,0-0.2V3.1c0-1,0.8-1.8,1.7-1.8c0.1,0,0.1,0,0.2,0h3.7v5H4.4c-0.7,0-1.2,0.6-1.2,1.2h4.4c0.3,0,0.6-0.3,0.6-0.6V0.6 C8.1,0.3,7.8,0,7.5,0H3.1C1.5-0.1,0.1,1.2,0,2.9C0,3,0,3.1,0,3.1v13.7c-0.1,1.7,1.2,3.1,2.9,3.1c0.1,0,0.2,0,0.2,0h4.4 C7.8,20,8.1,19.7,8.1,19.4z"/>
    </g>
  </symbol>

  <symbol id="icon-vk" xmlns="http://www.w3.org/2000/svg" xmlns:xlink="http://www.w3.org/1999/xlink" viewBox="0 0 30 16">
    <path d="M23.9379997,15.7599764c-0.3859997,0-1.1700001-0.0820007-2.0750008-0.632 c-0.6420002-0.3850002-1.2229996-0.9680004-1.7840004-1.5319996c-0.4379997-0.4400005-1.1709995-1.177-1.4470005-1.177 c-0.2679996,0.0750008-0.4810009,0.9209995-0.4759998,1.5690002c0.0039997,0.1130009-0.0009995,0.7740002-0.4680004,1.2129993 c-0.4249992,0.3999996-1.0879993,0.4850006-1.2159996,0.4979992l-1.9260006,0.007 c-0.9669991,0-4.3579998-0.2180004-7.4289999-3.0209999c-3.6739998-3.3579998-6.835-9.7980003-6.9679999-10.0699997 c-0.197-0.4619999-0.2479999-1.0660001,0.152-1.4820005c0.392-0.4130001,1.0809999-0.4720001,1.3590002-0.4790001 L5.7429981,0.629975l0.1149998,0.0080004c0.0909996,0.0139999,0.5670004,0.0950003,0.9569998,0.349 c0.3879995,0.2469997,0.5900002,0.651,0.6260004,0.7299995c0.0100002,0.0209999,0.6490002,1.4320003,1.4750004,2.684 c1.3120003,1.9899998,1.8959999,2.4549999,2.1029997,2.5620003c0.1879997-0.4169998,0.2770004-1.7000008,0.1870003-2.8710003 c0.0010004-0.4929998-0.1009998-1.0979993-0.2519999-1.2779996c-0.1120005-0.1339998-0.4259996-0.2530003-0.7779999-0.2939997 L9.4539986,1.8289753c-0.0959997-0.658,0.6350002-1.2259998,1.1490002-1.4460001c0.7369995-0.316,1.7919998-0.382,3.1469994-0.382 l0.7099991,0.0050001c1.2350006,0.0120001,1.6219997,0.0810003,2.1490002,0.191 c1.7019997,0.3610001,1.6399994,1.7290001,1.5669994,3.3120003c-0.0209999,0.4639997-0.0459995,1.0010002-0.0459995,1.6209991 c0,0.1509991-0.0049992,0.3120003-0.0109997,0.4790001C18.1069984,5.9889741,18.086998,6.646975,18.211998,6.9129758 c0.2189999-0.1450005,0.8519993-0.6650009,2.0720005-2.4829998c0.782999-1.1649997,1.3999996-2.5389996,1.5170002-2.8029995 l0.0009995-0.0010004c0.1819992-0.4300003,0.6079998-0.941,1.6130009-0.9460001l4.2740002-0.0240002 C27.7009983,0.6529757,27.8610001,0.6399761,28.066,0.6399761c0.9800014,0,1.5969982,0.2869997,1.8319988,0.8540001 c0.269001,0.6499997,0.1689987,1.6569997-2.3540001,4.6050005c-0.3700008,0.4319992-0.6970005,0.8040009-0.9820004,1.1270008 c-0.5979996,0.6779995-1.2159996,1.3790002-1.2369995,1.5949998c0.0529995,0.1690006,0.6620007,0.6650009,1.2520008,1.1450005 c1.5300007,1.2469997,2.5279999,2.2639999,3.0330009,3.073c0.5219994,0.7590008,0.4290009,1.3299999,0.2579994,1.677 c-0.4239998,0.8640003-1.6380005,0.9729996-1.8770008,0.9850006l-3.789999,0.0470009 C24.1459999,15.7539759,24.0559998,15.7599764,23.9379997,15.7599764z M18.6310005,10.9199762 c0.8990002,0,1.6819992,0.7859993,2.5109997,1.618c0.4969997,0.5,1.0109997,1.0160007,1.4960003,1.3069992 c0.7269993,0.4400005,1.316,0.4209995,1.3980007,0.4120007l0.1030006-0.0090008l3.8050003-0.0470009 c0.1709995-0.0119991,0.4109993-0.073,0.5359993-0.1359997c-0.0179996-0.0389996-0.0480003-0.0939999-0.0979996-0.1669998 c-0.4489994-0.7180004-1.3880005-1.6590004-2.6860008-2.7180004c-1.184-0.9629993-1.8010006-1.4650002-1.8649998-2.2439995 c-0.066-0.8050003,0.493-1.4389997,1.6070004-2.7029996c0.2800007-0.3180008,0.6040001-0.6849995,0.967001-1.1089993 c1.559-1.8209999,1.9570007-2.6400001,2.0580006-2.9560001c-0.1700001-0.0290003-0.6480007-0.0209999-0.6779995-0.0179996 l-4.3610001,0.0279999c-0.191,0.0010004-0.2490005,0.0349998-0.2490005,0.0360003 c-0.1760006,0.4139996-0.8120003,1.812-1.644001,3.049999c-1.8950005,2.8200002-2.7849998,3.2000012-3.4069996,3.2010007 c-0.2040005,0-0.3959999-0.0499992-0.5690002-0.1480007c-1.0030003-0.5690007-0.9629993-1.8340001-0.934-2.7570004 c0.0049992-0.1490002,0.0100002-0.2950001,0.0100002-0.4309998c0-0.6459999,0.0249996-1.2069995,0.0480003-1.6889999c0.0760002-1.6800004,0.0160007-1.6920005-0.3789997-1.7760001c-0.4090004-0.0860004-0.7049999-0.1470003-1.855999-0.1590004l-0.6930008-0.0050001c-0.6240005,0-1.3430004,0.0139999-1.9060001,0.0979996c0.092,0.0740004,0.1800003,0.1569996,0.2589998,0.2510004c0.5880003,0.7040006,0.6040001,1.9510003,0.6009998,2.1940002c0.1300001,1.6459999,0.0609999,3.7959995-1.0179996,4.3130002c-0.191,0.0919991-0.3920002,0.1369991-0.5970001,0.1369991c-0.9259996,0-1.8540001-0.8850007-3.4250002-3.2670007C6.7700024,3.8719738,6.1050034,2.4019744,6.0780029,2.3389738C6.0670033,2.3179739,6.024003,2.2619741,6.0030031,2.2449739C5.9200029,2.190974,5.7700033,2.1479738,5.6830034,2.1289737L1.6820035,2.1529739C1.6610036,2.1539743,1.6370034,2.1549737,1.6120033,2.157974c0.5910001,1.1890001,3.4260006,6.592,6.5190001,9.4189997c2.7399998,2.5020008,5.8260012,2.6289997,6.4170008,2.6289997l1.8509998-0.0030003c0.0459995-0.0100002,0.2180004-0.0620003,0.2689991-0.1000004c-0.0189991,0.0179996-0.0100002-0.0529995-0.0100002-0.0970001c-0.0030003-0.2649994,0.0119991-2.5949993,1.5779991-3.0340004C18.3619995,10.9379759,18.4950008,10.9199762,18.6310005,10.9199762z"/>
  </symbol>
</svg>
